<?xml version="1.0" encoding="UTF-8"?>
<svg width="1024px" height="260px" viewBox="0 0 1024 260" version="1.1" xmlns="http://www.w3.org/2000/svg" xmlns:xlink="http://www.w3.org/1999/xlink">
    <title>wordmark</title>
    <g id="Page-1" stroke="none" stroke-width="1" fill="none" fill-rule="evenodd">
        <g id="wordmark" fill="#FFFFFF" fill-rule="nonzero">
            <path d="M1.13686838e-13,131.113126 C1.13686838e-13,69.3804775 42.3923146,8.61690339 130.351121,8.61690339 C156.164263,8.61690339 184.521993,23.2577818 214.165134,23.2577818 L214.165134,112.36023 L211.305751,112.36023 C191.552402,65.2684598 156.479057,18.1766898 127.176944,18.1766898 C97.8748303,18.1766898 79.3806584,53.8229072 79.3806584,95.4930996 C79.3806584,153.087539 112.512771,222.127531 188.378225,222.127531 C194.123223,222.127531 201.442193,221.813237 208.787396,219.586985 L209.416985,220.529868 C182.633227,246.930593 150.130703,259.030926 119.228385,259.030926 C57.0827206,259.030926 0.0262328679,210.655787 0.0262328679,131.113126 L1.13686838e-13,131.113126 Z" id="Path"></path>
            <path d="M319.332701,197.298277 C319.332701,210.970082 319.332701,236.742218 333.996875,253.609348 L333.996875,254.892717 L224.999308,254.892717 L224.999308,253.609348 C239.663481,236.742218 239.663481,210.970082 239.663481,197.298277 L239.663481,155.601894 C239.663481,141.93009 239.663481,116.157953 224.999308,99.290823 L224.999308,98.0074544 L244.752658,98.0074544 C276.625592,97.6931601 298.92353,96.0954971 319.332701,82.1093986 L319.332701,153.375642 C340.686256,90.3596253 369.699808,81.4546187 397.742744,80.5117357 L398.057538,155.287599 C349.920225,131.42742 321.247701,142.558678 319.332701,184.569356 L319.332701,197.298277 L319.332701,197.298277 Z" id="Path"></path>
            <path d="M600.12932,197.298277 C600.12932,210.970082 600.12932,236.742218 614.793493,253.609348 L614.793493,254.892717 L566.997208,254.892717 C545.958448,254.892717 526.519892,251.068802 521.74551,226.26574 C508.366748,248.868742 483.183195,260 459.285052,260 C429.956706,260 402.884386,243.13287 402.884386,212.593936 C402.884386,157.854337 520.486333,153.087539 520.486333,106.624358 L520.486333,100.888486 C520.486333,92.2977737 517.941745,88.4738592 513.482157,88.4738592 C501.047778,88.4738592 476.205252,106.938652 458.340669,145.43971 L436.042731,91.6691851 C465.056283,83.0784729 487.669015,78.6259696 511.252363,78.9402639 C561.278442,78.9402639 600.181786,98.9765287 600.181786,144.811121 L600.181786,197.324469 L600.12932,197.298277 Z M520.4601,212.567745 L520.4601,127.289211 C508.340515,148.29455 482.527373,168.959404 482.527373,200.153118 C482.527373,220.189382 493.991136,229.12058 504.510516,229.12058 C512.800102,229.12058 520.433867,223.070414 520.433867,212.567745 L520.4601,212.567745 Z" id="Shape"></path>
            <path d="M628.48705,253.609348 C643.151223,236.742218 643.151223,210.970082 643.151223,197.298277 L643.151223,90.3858165 L627.227872,90.3858165 L627.227872,82.1093986 L643.151223,82.1093986 L643.151223,63.6446056 C643.151223,19.7219704 674.709363,1.13506241e-13 717.416472,1.13506241e-13 C732.080646,1.13506241e-13 748.003996,2.22625164 764.268375,6.67875491 L764.268375,9.53359525 C735.910644,9.53359525 722.846676,33.0794802 722.846676,63.6184144 L722.846676,82.0832074 L754.719611,82.0832074 L754.719611,90.3596253 L722.846676,90.3596253 L722.846676,197.272086 C722.846676,210.94389 722.846676,236.716027 737.510849,253.583157 L737.510849,254.866526 L628.513283,254.866526 L628.513283,253.583157 L628.48705,253.609348 Z" id="Path"></path>
            <path d="M786.566312,195.072026 L786.566312,90.3858165 L769.042757,90.3858165 L769.042757,82.1093986 C799.630281,82.1093986 849.997387,49.0037272 863.061355,13.0694067 L866.235532,13.0694067 L866.235532,82.1093986 L898.108467,82.1093986 L898.108467,90.3858165 L866.235532,90.3858165 L866.235532,201.750781 C866.235532,224.013297 879.614295,235.485041 895.878673,235.485041 C900.023466,235.485041 904.797848,234.542158 909.257436,232.944495 L909.887024,235.170746 C889.163059,252.037876 865.894505,260 845.511567,260 C812.694249,260 786.540079,238.680367 786.540079,195.098217 L786.566312,195.072026 Z" id="Path"></path>
            <path d="M1024,253.609348 L1024,254.892717 L915.002434,254.892717 L915.002434,253.609348 C929.666607,236.742218 929.666607,210.970082 929.666607,197.298277 L929.666607,155.601894 C929.666607,141.93009 929.666607,116.157953 915.002434,99.290823 L915.002434,98.0074544 L934.755783,98.0074544 C966.628718,97.6931601 988.926656,96.0954971 1009.33583,82.1093986 L1009.33583,197.298277 C1009.33583,210.970082 1009.33583,236.742218 1024,253.609348 L1024,253.609348 Z M927.122019,44.2369296 C927.122019,26.0864309 941.156603,7.9621235 968.543717,7.9621235 C995.930831,7.9621235 1009.96542,26.0864309 1009.96542,44.2369296 C1009.96542,62.3874282 996.271859,80.82603 968.543717,80.82603 C940.815576,80.82603 927.122019,62.7017226 927.122019,44.2369296 L927.122019,44.2369296 Z" id="Shape"></path>
        </g>
    </g>
</svg>